<svg width="80" height="80" viewBox="0 0 80 80" fill="none" xmlns="http://www.w3.org/2000/svg">
<path d="M21.6667 26.6667C24.4281 26.6667 26.6667 24.4281 26.6667 21.6667C26.6667 18.9053 24.4281 16.6667 21.6667 16.6667C18.9052 16.6667 16.6667 18.9053 16.6667 21.6667C16.6667 24.4281 18.9052 26.6667 21.6667 26.6667Z" fill="#0F0F0F"/>
<path d="M16.6667 33.3333C16.6667 31.4924 18.1591 30 20 30H23.3333C25.1743 30 26.6667 31.4924 26.6667 33.3333V60C26.6667 61.841 25.1743 63.3333 23.3333 63.3333H20C18.1591 63.3333 16.6667 61.841 16.6667 60V33.3333Z" fill="#0F0F0F"/>
<path d="M36.6667 63.3333H40C41.841 63.3333 43.3333 61.841 43.3333 60V45C43.3333 40 53.3333 36.6667 53.3333 43.3333V60.0013C53.3333 61.8423 54.8257 63.3333 56.6667 63.3333H60C61.841 63.3333 63.3333 61.841 63.3333 60V40C63.3333 33.3333 58.3333 30 51.6667 30C45 30 43.3333 35 43.3333 35V33.3333C43.3333 31.4924 41.841 30 40 30H36.6667C34.8257 30 33.3333 31.4924 33.3333 33.3333V60C33.3333 61.841 34.8257 63.3333 36.6667 63.3333Z" fill="#0F0F0F"/>
<path fill-rule="evenodd" clip-rule="evenodd" d="M66.6667 3.33331C72.1897 3.33331 76.6667 7.81048 76.6667 13.3333V66.6666C76.6667 72.1896 72.1897 76.6666 66.6667 76.6666H13.3333C7.81049 76.6666 3.33333 72.1896 3.33333 66.6666V13.3333C3.33333 7.81048 7.81049 3.33331 13.3333 3.33331H66.6667ZM66.6667 9.99998C68.5077 9.99998 70 11.4924 70 13.3333V66.6666C70 68.5076 68.5077 70 66.6667 70H13.3333C11.4924 70 9.99999 68.5076 9.99999 66.6666V13.3333C9.99999 11.4924 11.4924 9.99998 13.3333 9.99998H66.6667Z" fill="#0F0F0F"/>
</svg>
