<svg width="80" height="80" viewBox="0 0 80 80" fill="none" xmlns="http://www.w3.org/2000/svg">
<path d="M33.3333 63.3334H20.6667C16.933 63.3334 15.0661 63.3334 13.6401 62.6067C12.3856 61.9677 11.3658 60.9477 10.7266 59.6934C10 58.2674 10 56.4004 10 52.6667V27.3334C10 23.5997 10 21.7328 10.7266 20.3068C11.3658 19.0523 12.3856 18.0325 13.6401 17.3933C15.0661 16.6667 16.933 16.6667 20.6667 16.6667H59.3333C63.067 16.6667 64.934 16.6667 66.36 17.3933C67.6143 18.0325 68.6343 19.0523 69.2733 20.3068C70 21.7328 70 23.5997 70 27.3334V33.3334M68.689 27.541L51.833 38.7784C47.5563 41.6294 45.418 43.055 43.1067 43.609C41.064 44.0984 38.9347 44.0984 36.8923 43.609C34.581 43.055 32.4426 41.6294 28.1658 38.7784L10.4915 26.9955M46.6667 70L53.4167 68.65C54.005 68.5324 54.2993 68.4734 54.5737 68.3657C54.8173 68.2704 55.049 68.1464 55.2633 67.9967C55.5053 67.828 55.7173 67.616 56.142 67.1914L70 53.3334C71.841 51.4924 71.841 48.5077 70 46.6667C68.159 44.8257 65.1743 44.8257 63.3333 46.6667L49.4753 60.5247C49.0507 60.9494 48.8387 61.1614 48.67 61.4034C48.5203 61.6177 48.3963 61.8493 48.301 62.093C48.1933 62.3673 48.1343 62.6617 48.0167 63.25L46.6667 70Z" stroke="black" stroke-width="8" stroke-linecap="round" stroke-linejoin="round"/>
</svg>
