<svg width="80" height="80" viewBox="0 0 80 80" fill="none" xmlns="http://www.w3.org/2000/svg">
<path d="M46.8333 20C50.0893 20.6353 53.0813 22.2276 55.427 24.5732C57.7727 26.9187 59.365 29.9109 60 33.1667M46.8333 6.66669C53.5977 7.41815 59.9053 10.4473 64.721 15.2567C69.5363 20.0662 72.5737 26.3701 73.3333 33.1334M61.6667 70C33.132 70 10 46.868 10 18.3334C10 17.046 10.0471 15.7696 10.1396 14.5058C10.2458 13.0554 10.2989 12.3303 10.679 11.6701C10.9938 11.1234 11.5517 10.6049 12.1199 10.3309C12.806 10 13.6063 10 15.2067 10H24.5977C25.9436 10 26.6165 10 27.1934 10.2215C27.703 10.4172 28.1567 10.735 28.5147 11.147C28.92 11.6135 29.15 12.2459 29.61 13.5107L33.497 24.2002C34.032 25.6718 34.2997 26.4076 34.2543 27.1057C34.2143 27.7213 34.004 28.3136 33.6473 28.8169C33.2429 29.3876 32.5715 29.7905 31.2288 30.5961L26.6667 33.3334C30.673 42.163 37.8337 49.333 46.6667 53.3334L49.404 48.7714C50.2097 47.4284 50.6123 46.757 51.183 46.3527C51.6863 45.996 52.2787 45.7857 52.8943 45.7457C53.5923 45.7004 54.3283 45.968 55.8 46.503L66.4893 50.39C67.754 50.85 68.3867 51.08 68.853 51.4854C69.265 51.8434 69.583 52.297 69.7783 52.8067C70 53.3834 70 54.0564 70 55.4024V64.7934C70 66.3937 70 67.194 69.669 67.88C69.395 68.4484 68.8767 69.0064 68.33 69.321C67.6697 69.701 66.9447 69.754 65.4943 69.8604C64.2303 69.953 62.954 70 61.6667 70Z" stroke="black" stroke-width="8" stroke-linecap="round" stroke-linejoin="round"/>
</svg>
